<svg width="128" height="128" viewBox="0 0 128 128" fill="none" xmlns="http://www.w3.org/2000/svg">
<path d="M27.386 57.8479C22.4603 57.8479 19.9975 55.3851 19.9975 50.4594L19.9975 30.4285C19.9975 25.5028 22.4603 23.04 27.386 23.04L46.4318 23.04C51.3575 23.04 53.8203 25.5028 53.8203 30.4285L53.8203 50.4594C53.8203 61.9526 52.6163 71.9681 50.2082 80.5059C47.6906 89.1531 42.8197 96.7058 35.5954 103.164C33.1873 105.244 31.1623 105.517 29.5204 103.985L22.132 97.0889C20.4901 95.5565 20.8732 93.6957 23.2813 91.5065C27.0029 88.2227 30.0677 83.4613 32.4758 77.2221C34.7745 71.0924 35.9238 64.6344 35.9238 57.8479L27.386 57.8479ZM81.5681 57.8479C76.6425 57.8479 74.1797 55.3851 74.1797 50.4594L74.1797 30.4285C74.1797 25.5028 76.6425 23.04 81.5681 23.04L100.614 23.04C105.54 23.04 108.002 25.5028 108.002 30.4285L108.002 50.4594C108.002 61.9526 106.798 71.9681 104.39 80.5059C101.873 89.1531 97.0018 96.7058 89.7775 103.164C87.3694 105.244 85.3445 105.517 83.7026 103.985L76.3141 97.0889C74.6722 95.5565 75.0553 93.6957 77.4634 91.5065C81.185 88.2227 84.2499 83.4613 86.658 77.2221C88.9566 71.0924 90.1059 64.6344 90.1059 57.8479L81.5681 57.8479Z" fill="#BD00FF" fill-opacity="0.3"/>
</svg>
