<svg width="128" height="128" viewBox="0 0 128 128" fill="none" xmlns="http://www.w3.org/2000/svg">
<path d="M100.614 70.1521C105.54 70.1521 108.003 72.6149 108.003 77.5406L108.003 97.5715C108.003 102.497 105.54 104.96 100.614 104.96H81.5682C76.6426 104.96 74.1797 102.497 74.1797 97.5715V77.5406C74.1797 66.0474 75.3838 56.0319 77.7919 47.4941C80.3094 38.8469 85.1803 31.2942 92.4046 24.8361C94.8127 22.7564 96.8377 22.4828 98.4796 24.0152L105.868 30.9111C107.51 32.4435 107.127 34.3043 104.719 36.4935C100.997 39.7773 97.9323 44.5387 95.5242 50.7779C93.2256 56.9076 92.0763 63.3656 92.0763 70.1521H100.614ZM46.4319 70.1521C51.3576 70.1521 53.8204 72.6149 53.8204 77.5406V97.5715C53.8204 102.497 51.3576 104.96 46.4319 104.96H27.3861C22.4604 104.96 19.9976 102.497 19.9976 97.5715L19.9976 77.5406C19.9976 66.0474 21.2016 56.0319 23.6097 47.4941C26.1273 38.8469 30.9982 31.2942 38.2225 24.8361C40.6306 22.7564 42.6556 22.4828 44.2975 24.0152L51.6859 30.9111C53.3278 32.4435 52.9447 34.3043 50.5366 36.4935C46.815 39.7773 43.7502 44.5387 41.3421 50.7779C39.0434 56.9076 37.8941 63.3656 37.8941 70.1521H46.4319Z" fill="#BD00FF" fill-opacity="0.3"/>
</svg>
